<mxfile host="Electron" modified="2023-12-10T17:01:13.893Z" agent="Mozilla/5.0 (Windows NT 10.0; Win64; x64) AppleWebKit/537.36 (KHTML, like Gecko) draw.io/22.1.2 Chrome/114.0.5735.289 Electron/25.9.4 Safari/537.36" etag="7lpDoiiheI6tI4szD9gg" version="22.1.2" type="device">
  <diagram id="Z3qhxp0idF8RCPp4j7Nd" name="use">
    <mxGraphModel dx="890" dy="372" grid="1" gridSize="10" guides="1" tooltips="1" connect="1" arrows="1" fold="1" page="0" pageScale="1" pageWidth="827" pageHeight="1169" math="0" shadow="0">
      <root>
        <mxCell id="0" />
        <mxCell id="1" parent="0" />
        <mxCell id="KXkjiEZ-s2yNR0u1X47W-100" style="edgeStyle=none;rounded=0;orthogonalLoop=1;jettySize=auto;html=1;exitX=1;exitY=0.5;exitDx=0;exitDy=0;exitPerimeter=0;entryX=0;entryY=0.5;entryDx=0;entryDy=0;entryPerimeter=0;fontSize=12;startSize=8;endSize=8;" edge="1" parent="1" source="KXkjiEZ-s2yNR0u1X47W-11" target="KXkjiEZ-s2yNR0u1X47W-42">
          <mxGeometry relative="1" as="geometry" />
        </mxCell>
        <mxCell id="2ehP6Vw183c0psJm0ZBP-9" value="" style="group;fontSize=16;" parent="1" vertex="1" connectable="0">
          <mxGeometry x="80" y="230" width="55" height="45" as="geometry" />
        </mxCell>
        <mxCell id="2ehP6Vw183c0psJm0ZBP-10" value="&lt;b style=&quot;font-size: 9px;&quot;&gt;N&lt;/b&gt;" style="text;html=1;strokeColor=none;fillColor=none;align=center;verticalAlign=middle;whiteSpace=wrap;rounded=0;fontSize=16;container=0;points=[];" parent="2ehP6Vw183c0psJm0ZBP-9" vertex="1">
          <mxGeometry x="35" y="17.5" width="20" height="10" as="geometry" />
        </mxCell>
        <object label="" markers="●" placeholders="1" id="2ehP6Vw183c0psJm0ZBP-11">
          <mxCell style="ellipse;whiteSpace=wrap;html=1;aspect=fixed;fontSize=16;direction=south;points=[[0,0.5,0,0,0],[0.5,0,0,0,0],[0.5,1,0,0,0],[1,0.5,0,0,0]];" parent="2ehP6Vw183c0psJm0ZBP-9" vertex="1">
            <mxGeometry y="10" width="35" height="35" as="geometry" />
          </mxCell>
        </object>
        <mxCell id="KXkjiEZ-s2yNR0u1X47W-1" style="edgeStyle=none;curved=1;rounded=0;orthogonalLoop=1;jettySize=auto;html=1;entryX=0;entryY=0.5;entryDx=0;entryDy=0;entryPerimeter=0;fontSize=12;startSize=8;endSize=8;" edge="1" parent="1" source="2ehP6Vw183c0psJm0ZBP-3" target="2ehP6Vw183c0psJm0ZBP-11">
          <mxGeometry relative="1" as="geometry" />
        </mxCell>
        <mxCell id="KXkjiEZ-s2yNR0u1X47W-2" value="" style="group;fontSize=16;" vertex="1" connectable="0" parent="1">
          <mxGeometry x="240" y="230" width="55" height="45" as="geometry" />
        </mxCell>
        <object label="" markers="●" placeholders="1" id="KXkjiEZ-s2yNR0u1X47W-4">
          <mxCell style="ellipse;whiteSpace=wrap;html=1;aspect=fixed;fontSize=16;direction=south;points=[[0,0.5,0,0,0],[0.5,0,0,0,0],[0.5,1,0,0,0],[1,0.5,0,0,0]];" vertex="1" parent="KXkjiEZ-s2yNR0u1X47W-2">
            <mxGeometry y="10" width="35" height="35" as="geometry" />
          </mxCell>
        </object>
        <mxCell id="KXkjiEZ-s2yNR0u1X47W-3" value="&lt;font size=&quot;1&quot;&gt;&lt;b&gt;S&lt;/b&gt;&lt;/font&gt;" style="text;html=1;strokeColor=none;fillColor=none;align=center;verticalAlign=middle;whiteSpace=wrap;rounded=0;fontSize=16;container=0;points=[];" vertex="1" parent="1">
          <mxGeometry x="220" y="247.5" width="20" height="10" as="geometry" />
        </mxCell>
        <mxCell id="KXkjiEZ-s2yNR0u1X47W-8" style="edgeStyle=none;curved=1;rounded=0;orthogonalLoop=1;jettySize=auto;html=1;entryX=0;entryY=0.5;entryDx=0;entryDy=0;entryPerimeter=0;fontSize=12;startSize=8;endSize=8;" edge="1" parent="1" source="2ehP6Vw183c0psJm0ZBP-3" target="KXkjiEZ-s2yNR0u1X47W-4">
          <mxGeometry relative="1" as="geometry" />
        </mxCell>
        <mxCell id="KXkjiEZ-s2yNR0u1X47W-12" style="edgeStyle=none;curved=1;rounded=0;orthogonalLoop=1;jettySize=auto;html=1;entryX=0;entryY=0.5;entryDx=0;entryDy=0;entryPerimeter=0;fontSize=12;startSize=8;endSize=8;" edge="1" parent="1" source="2ehP6Vw183c0psJm0ZBP-11" target="KXkjiEZ-s2yNR0u1X47W-11">
          <mxGeometry relative="1" as="geometry" />
        </mxCell>
        <mxCell id="KXkjiEZ-s2yNR0u1X47W-13" style="edgeStyle=none;curved=1;rounded=0;orthogonalLoop=1;jettySize=auto;html=1;entryX=0;entryY=0.5;entryDx=0;entryDy=0;entryPerimeter=0;fontSize=12;startSize=8;endSize=8;" edge="1" parent="1" source="KXkjiEZ-s2yNR0u1X47W-4" target="KXkjiEZ-s2yNR0u1X47W-11">
          <mxGeometry relative="1" as="geometry" />
        </mxCell>
        <object label="" markers="●" placeholders="1" id="KXkjiEZ-s2yNR0u1X47W-11">
          <mxCell style="ellipse;whiteSpace=wrap;html=1;aspect=fixed;fontSize=16;direction=south;points=[[0,0.5,0,0,0],[0.5,0,0,0,0],[0.5,1,0,0,0],[1,0.5,0,0,0]];" vertex="1" parent="1">
            <mxGeometry x="160" y="320" width="35" height="35" as="geometry" />
          </mxCell>
        </object>
        <mxCell id="KXkjiEZ-s2yNR0u1X47W-43" value="" style="group;fontSize=16;" vertex="1" connectable="0" parent="1">
          <mxGeometry x="80" y="470" width="55" height="45" as="geometry" />
        </mxCell>
        <mxCell id="KXkjiEZ-s2yNR0u1X47W-44" value="&lt;b style=&quot;font-size: 9px;&quot;&gt;N&lt;/b&gt;" style="text;html=1;strokeColor=none;fillColor=none;align=center;verticalAlign=middle;whiteSpace=wrap;rounded=0;fontSize=16;container=0;points=[];" vertex="1" parent="KXkjiEZ-s2yNR0u1X47W-43">
          <mxGeometry x="35" y="17.5" width="20" height="10" as="geometry" />
        </mxCell>
        <object label="" markers="●" placeholders="1" id="KXkjiEZ-s2yNR0u1X47W-45">
          <mxCell style="ellipse;whiteSpace=wrap;html=1;aspect=fixed;fontSize=16;direction=south;points=[[0,0.5,0,0,0],[0.5,0,0,0,0],[0.5,1,0,0,0],[1,0.5,0,0,0]];" vertex="1" parent="KXkjiEZ-s2yNR0u1X47W-43">
            <mxGeometry y="10" width="35" height="35" as="geometry" />
          </mxCell>
        </object>
        <mxCell id="KXkjiEZ-s2yNR0u1X47W-46" style="edgeStyle=none;curved=1;rounded=0;orthogonalLoop=1;jettySize=auto;html=1;entryX=0;entryY=0.5;entryDx=0;entryDy=0;entryPerimeter=0;fontSize=12;startSize=8;endSize=8;" edge="1" parent="1" source="KXkjiEZ-s2yNR0u1X47W-42" target="KXkjiEZ-s2yNR0u1X47W-45">
          <mxGeometry relative="1" as="geometry" />
        </mxCell>
        <mxCell id="KXkjiEZ-s2yNR0u1X47W-47" value="" style="group;fontSize=16;" vertex="1" connectable="0" parent="1">
          <mxGeometry x="240" y="470" width="55" height="45" as="geometry" />
        </mxCell>
        <object label="" markers="●" placeholders="1" id="KXkjiEZ-s2yNR0u1X47W-48">
          <mxCell style="ellipse;whiteSpace=wrap;html=1;aspect=fixed;fontSize=16;direction=south;points=[[0,0.5,0,0,0],[0.5,0,0,0,0],[0.5,1,0,0,0],[1,0.5,0,0,0]];" vertex="1" parent="KXkjiEZ-s2yNR0u1X47W-47">
            <mxGeometry y="10" width="35" height="35" as="geometry" />
          </mxCell>
        </object>
        <mxCell id="KXkjiEZ-s2yNR0u1X47W-49" value="&lt;font size=&quot;1&quot;&gt;&lt;b&gt;S&lt;/b&gt;&lt;/font&gt;" style="text;html=1;strokeColor=none;fillColor=none;align=center;verticalAlign=middle;whiteSpace=wrap;rounded=0;fontSize=16;container=0;points=[];" vertex="1" parent="1">
          <mxGeometry x="220" y="487.5" width="20" height="10" as="geometry" />
        </mxCell>
        <mxCell id="KXkjiEZ-s2yNR0u1X47W-50" style="edgeStyle=none;curved=1;rounded=0;orthogonalLoop=1;jettySize=auto;html=1;entryX=0;entryY=0.5;entryDx=0;entryDy=0;entryPerimeter=0;fontSize=12;startSize=8;endSize=8;" edge="1" parent="1" source="KXkjiEZ-s2yNR0u1X47W-42" target="KXkjiEZ-s2yNR0u1X47W-48">
          <mxGeometry relative="1" as="geometry" />
        </mxCell>
        <mxCell id="KXkjiEZ-s2yNR0u1X47W-51" style="edgeStyle=none;curved=1;rounded=0;orthogonalLoop=1;jettySize=auto;html=1;entryX=0;entryY=0.5;entryDx=0;entryDy=0;entryPerimeter=0;fontSize=12;startSize=8;endSize=8;" edge="1" parent="1" source="KXkjiEZ-s2yNR0u1X47W-45" target="KXkjiEZ-s2yNR0u1X47W-53">
          <mxGeometry relative="1" as="geometry" />
        </mxCell>
        <mxCell id="KXkjiEZ-s2yNR0u1X47W-52" style="edgeStyle=none;curved=1;rounded=0;orthogonalLoop=1;jettySize=auto;html=1;entryX=0;entryY=0.5;entryDx=0;entryDy=0;entryPerimeter=0;fontSize=12;startSize=8;endSize=8;" edge="1" parent="1" source="KXkjiEZ-s2yNR0u1X47W-48" target="KXkjiEZ-s2yNR0u1X47W-53">
          <mxGeometry relative="1" as="geometry" />
        </mxCell>
        <object label="" markers="●" placeholders="1" id="KXkjiEZ-s2yNR0u1X47W-53">
          <mxCell style="ellipse;whiteSpace=wrap;html=1;aspect=fixed;fontSize=16;direction=south;points=[[0,0.5,0,0,0],[0.5,0,0,0,0],[0.5,1,0,0,0],[1,0.5,0,0,0]];" vertex="1" parent="1">
            <mxGeometry x="160" y="560" width="35" height="35" as="geometry" />
          </mxCell>
        </object>
        <mxCell id="KXkjiEZ-s2yNR0u1X47W-41" value="&lt;b style=&quot;font-size: 9px;&quot;&gt;Phase 2&lt;/b&gt;" style="text;html=1;strokeColor=none;fillColor=none;align=center;verticalAlign=middle;whiteSpace=wrap;rounded=0;fontSize=16;container=0;points=[];" vertex="1" parent="1">
          <mxGeometry x="156.25" y="430" width="42.5" height="21.25" as="geometry" />
        </mxCell>
        <object label="" markers="●" placeholders="1" id="KXkjiEZ-s2yNR0u1X47W-42">
          <mxCell style="ellipse;whiteSpace=wrap;html=1;aspect=fixed;fontSize=16;direction=south;points=[[0,0.5,0,0,0],[0.5,0,0,0,0],[0.5,1,0,0,0],[1,0.5,0,0,0]];" vertex="1" parent="1">
            <mxGeometry x="160" y="400" width="35" height="35" as="geometry" />
          </mxCell>
        </object>
        <mxCell id="KXkjiEZ-s2yNR0u1X47W-72" value="" style="group;fontSize=16;" vertex="1" connectable="0" parent="1">
          <mxGeometry x="80" y="710" width="55" height="45" as="geometry" />
        </mxCell>
        <mxCell id="KXkjiEZ-s2yNR0u1X47W-73" value="&lt;b style=&quot;font-size: 9px;&quot;&gt;E&lt;/b&gt;" style="text;html=1;strokeColor=none;fillColor=none;align=center;verticalAlign=middle;whiteSpace=wrap;rounded=0;fontSize=16;container=0;points=[];" vertex="1" parent="KXkjiEZ-s2yNR0u1X47W-72">
          <mxGeometry x="35" y="17.5" width="20" height="10" as="geometry" />
        </mxCell>
        <object label="" markers="●" placeholders="1" id="KXkjiEZ-s2yNR0u1X47W-74">
          <mxCell style="ellipse;whiteSpace=wrap;html=1;aspect=fixed;fontSize=16;direction=south;points=[[0,0.5,0,0,0],[0.5,0,0,0,0],[0.5,1,0,0,0],[1,0.5,0,0,0]];" vertex="1" parent="KXkjiEZ-s2yNR0u1X47W-72">
            <mxGeometry y="10" width="35" height="35" as="geometry" />
          </mxCell>
        </object>
        <mxCell id="KXkjiEZ-s2yNR0u1X47W-75" style="edgeStyle=none;curved=1;rounded=0;orthogonalLoop=1;jettySize=auto;html=1;entryX=0;entryY=0.5;entryDx=0;entryDy=0;entryPerimeter=0;fontSize=12;startSize=8;endSize=8;" edge="1" parent="1" source="KXkjiEZ-s2yNR0u1X47W-84" target="KXkjiEZ-s2yNR0u1X47W-74">
          <mxGeometry relative="1" as="geometry" />
        </mxCell>
        <mxCell id="KXkjiEZ-s2yNR0u1X47W-76" value="" style="group;fontSize=16;" vertex="1" connectable="0" parent="1">
          <mxGeometry x="240" y="710" width="55" height="45" as="geometry" />
        </mxCell>
        <object label="" markers="●" placeholders="1" id="KXkjiEZ-s2yNR0u1X47W-77">
          <mxCell style="ellipse;whiteSpace=wrap;html=1;aspect=fixed;fontSize=16;direction=south;points=[[0,0.5,0,0,0],[0.5,0,0,0,0],[0.5,1,0,0,0],[1,0.5,0,0,0]];" vertex="1" parent="KXkjiEZ-s2yNR0u1X47W-76">
            <mxGeometry y="10" width="35" height="35" as="geometry" />
          </mxCell>
        </object>
        <mxCell id="KXkjiEZ-s2yNR0u1X47W-78" value="&lt;font size=&quot;1&quot;&gt;&lt;b&gt;W&lt;/b&gt;&lt;/font&gt;" style="text;html=1;strokeColor=none;fillColor=none;align=center;verticalAlign=middle;whiteSpace=wrap;rounded=0;fontSize=16;container=0;points=[];" vertex="1" parent="1">
          <mxGeometry x="220" y="727.5" width="20" height="10" as="geometry" />
        </mxCell>
        <mxCell id="KXkjiEZ-s2yNR0u1X47W-79" style="edgeStyle=none;curved=1;rounded=0;orthogonalLoop=1;jettySize=auto;html=1;entryX=0;entryY=0.5;entryDx=0;entryDy=0;entryPerimeter=0;fontSize=12;startSize=8;endSize=8;" edge="1" parent="1" source="KXkjiEZ-s2yNR0u1X47W-84" target="KXkjiEZ-s2yNR0u1X47W-77">
          <mxGeometry relative="1" as="geometry" />
        </mxCell>
        <mxCell id="KXkjiEZ-s2yNR0u1X47W-80" style="edgeStyle=none;curved=1;rounded=0;orthogonalLoop=1;jettySize=auto;html=1;entryX=0;entryY=0.5;entryDx=0;entryDy=0;entryPerimeter=0;fontSize=12;startSize=8;endSize=8;" edge="1" parent="1" source="KXkjiEZ-s2yNR0u1X47W-74" target="KXkjiEZ-s2yNR0u1X47W-82">
          <mxGeometry relative="1" as="geometry" />
        </mxCell>
        <mxCell id="KXkjiEZ-s2yNR0u1X47W-81" style="edgeStyle=none;curved=1;rounded=0;orthogonalLoop=1;jettySize=auto;html=1;entryX=0;entryY=0.5;entryDx=0;entryDy=0;entryPerimeter=0;fontSize=12;startSize=8;endSize=8;" edge="1" parent="1" source="KXkjiEZ-s2yNR0u1X47W-77" target="KXkjiEZ-s2yNR0u1X47W-82">
          <mxGeometry relative="1" as="geometry" />
        </mxCell>
        <object label="" markers="●" placeholders="1" id="KXkjiEZ-s2yNR0u1X47W-82">
          <mxCell style="ellipse;whiteSpace=wrap;html=1;aspect=fixed;fontSize=16;direction=south;points=[[0,0.5,0,0,0],[0.5,0,0,0,0],[0.5,1,0,0,0],[1,0.5,0,0,0]];" vertex="1" parent="1">
            <mxGeometry x="160" y="800" width="35" height="35" as="geometry" />
          </mxCell>
        </object>
        <mxCell id="KXkjiEZ-s2yNR0u1X47W-83" value="&lt;b style=&quot;font-size: 9px;&quot;&gt;Phase 4&lt;/b&gt;" style="text;html=1;strokeColor=none;fillColor=none;align=center;verticalAlign=middle;whiteSpace=wrap;rounded=0;fontSize=16;container=0;points=[];" vertex="1" parent="1">
          <mxGeometry x="156.25" y="670" width="42.5" height="21.25" as="geometry" />
        </mxCell>
        <object label="" markers="●" placeholders="1" id="KXkjiEZ-s2yNR0u1X47W-84">
          <mxCell style="ellipse;whiteSpace=wrap;html=1;aspect=fixed;fontSize=16;direction=south;points=[[0,0.5,0,0,0],[0.5,0,0,0,0],[0.5,1,0,0,0],[1,0.5,0,0,0]];" vertex="1" parent="1">
            <mxGeometry x="160" y="640" width="35" height="35" as="geometry" />
          </mxCell>
        </object>
        <mxCell id="KXkjiEZ-s2yNR0u1X47W-85" value="" style="group;fontSize=16;" vertex="1" connectable="0" parent="1">
          <mxGeometry x="80" y="950" width="55" height="45" as="geometry" />
        </mxCell>
        <mxCell id="KXkjiEZ-s2yNR0u1X47W-86" value="&lt;b style=&quot;font-size: 9px;&quot;&gt;E&lt;/b&gt;" style="text;html=1;strokeColor=none;fillColor=none;align=center;verticalAlign=middle;whiteSpace=wrap;rounded=0;fontSize=16;container=0;points=[];" vertex="1" parent="KXkjiEZ-s2yNR0u1X47W-85">
          <mxGeometry x="35" y="17.5" width="20" height="10" as="geometry" />
        </mxCell>
        <object label="" markers="●" placeholders="1" id="KXkjiEZ-s2yNR0u1X47W-87">
          <mxCell style="ellipse;whiteSpace=wrap;html=1;aspect=fixed;fontSize=16;direction=south;points=[[0,0.5,0,0,0],[0.5,0,0,0,0],[0.5,1,0,0,0],[1,0.5,0,0,0]];" vertex="1" parent="KXkjiEZ-s2yNR0u1X47W-85">
            <mxGeometry y="10" width="35" height="35" as="geometry" />
          </mxCell>
        </object>
        <mxCell id="KXkjiEZ-s2yNR0u1X47W-88" style="edgeStyle=none;curved=1;rounded=0;orthogonalLoop=1;jettySize=auto;html=1;entryX=0;entryY=0.5;entryDx=0;entryDy=0;entryPerimeter=0;fontSize=12;startSize=8;endSize=8;" edge="1" parent="1" source="KXkjiEZ-s2yNR0u1X47W-97" target="KXkjiEZ-s2yNR0u1X47W-87">
          <mxGeometry relative="1" as="geometry" />
        </mxCell>
        <mxCell id="KXkjiEZ-s2yNR0u1X47W-89" value="" style="group;fontSize=16;" vertex="1" connectable="0" parent="1">
          <mxGeometry x="240" y="950" width="55" height="45" as="geometry" />
        </mxCell>
        <object label="" markers="●" placeholders="1" id="KXkjiEZ-s2yNR0u1X47W-90">
          <mxCell style="ellipse;whiteSpace=wrap;html=1;aspect=fixed;fontSize=16;direction=south;points=[[0,0.5,0,0,0],[0.5,0,0,0,0],[0.5,1,0,0,0],[1,0.5,0,0,0]];" vertex="1" parent="KXkjiEZ-s2yNR0u1X47W-89">
            <mxGeometry y="10" width="35" height="35" as="geometry" />
          </mxCell>
        </object>
        <mxCell id="KXkjiEZ-s2yNR0u1X47W-91" value="&lt;font size=&quot;1&quot;&gt;&lt;b&gt;W&lt;/b&gt;&lt;/font&gt;" style="text;html=1;strokeColor=none;fillColor=none;align=center;verticalAlign=middle;whiteSpace=wrap;rounded=0;fontSize=16;container=0;points=[];" vertex="1" parent="1">
          <mxGeometry x="220" y="967.5" width="20" height="10" as="geometry" />
        </mxCell>
        <mxCell id="KXkjiEZ-s2yNR0u1X47W-92" style="edgeStyle=none;curved=1;rounded=0;orthogonalLoop=1;jettySize=auto;html=1;entryX=0;entryY=0.5;entryDx=0;entryDy=0;entryPerimeter=0;fontSize=12;startSize=8;endSize=8;" edge="1" parent="1" source="KXkjiEZ-s2yNR0u1X47W-97" target="KXkjiEZ-s2yNR0u1X47W-90">
          <mxGeometry relative="1" as="geometry" />
        </mxCell>
        <mxCell id="KXkjiEZ-s2yNR0u1X47W-93" style="edgeStyle=none;curved=1;rounded=0;orthogonalLoop=1;jettySize=auto;html=1;entryX=0;entryY=0.5;entryDx=0;entryDy=0;entryPerimeter=0;fontSize=12;startSize=8;endSize=8;" edge="1" parent="1" source="KXkjiEZ-s2yNR0u1X47W-87" target="KXkjiEZ-s2yNR0u1X47W-95">
          <mxGeometry relative="1" as="geometry" />
        </mxCell>
        <mxCell id="KXkjiEZ-s2yNR0u1X47W-94" style="edgeStyle=none;curved=1;rounded=0;orthogonalLoop=1;jettySize=auto;html=1;entryX=0;entryY=0.5;entryDx=0;entryDy=0;entryPerimeter=0;fontSize=12;startSize=8;endSize=8;" edge="1" parent="1" source="KXkjiEZ-s2yNR0u1X47W-90" target="KXkjiEZ-s2yNR0u1X47W-95">
          <mxGeometry relative="1" as="geometry" />
        </mxCell>
        <mxCell id="KXkjiEZ-s2yNR0u1X47W-96" value="&lt;b style=&quot;font-size: 9px;&quot;&gt;Phase 5&lt;/b&gt;" style="text;html=1;strokeColor=none;fillColor=none;align=center;verticalAlign=middle;whiteSpace=wrap;rounded=0;fontSize=16;container=0;points=[];" vertex="1" parent="1">
          <mxGeometry x="156.25" y="910" width="42.5" height="21.25" as="geometry" />
        </mxCell>
        <object label="" markers="●" placeholders="1" id="KXkjiEZ-s2yNR0u1X47W-97">
          <mxCell style="ellipse;whiteSpace=wrap;html=1;aspect=fixed;fontSize=16;direction=south;points=[[0,0.5,0,0,0],[0.5,0,0,0,0],[0.5,1,0,0,0],[1,0.5,0,0,0]];" vertex="1" parent="1">
            <mxGeometry x="160" y="880" width="35" height="35" as="geometry" />
          </mxCell>
        </object>
        <mxCell id="2ehP6Vw183c0psJm0ZBP-2" value="&lt;b style=&quot;font-size: 9px;&quot;&gt;Phase 1&lt;/b&gt;" style="text;html=1;strokeColor=none;fillColor=none;align=center;verticalAlign=middle;whiteSpace=wrap;rounded=0;fontSize=16;container=0;points=[];" parent="1" vertex="1">
          <mxGeometry x="156.25" y="190" width="42.5" height="21.25" as="geometry" />
        </mxCell>
        <mxCell id="KXkjiEZ-s2yNR0u1X47W-101" value="" style="endArrow=none;html=1;rounded=0;fontSize=12;startSize=8;endSize=8;fillColor=#dae8fc;strokeColor=#6c8ebf;exitX=0.307;exitY=0.956;exitDx=0;exitDy=0;exitPerimeter=0;strokeWidth=2;" edge="1" parent="1" source="KXkjiEZ-s2yNR0u1X47W-95">
          <mxGeometry width="50" height="50" relative="1" as="geometry">
            <mxPoint x="110" y="231" as="sourcePoint" />
            <mxPoint x="164" y="171" as="targetPoint" />
            <Array as="points">
              <mxPoint x="70" y="1000" />
              <mxPoint x="70" y="960" />
              <mxPoint x="150" y="900" />
              <mxPoint x="150" y="810" />
              <mxPoint x="70" y="760" />
              <mxPoint x="70" y="720" />
              <mxPoint x="150" y="660" />
              <mxPoint x="150" y="570" />
              <mxPoint x="70" y="520" />
              <mxPoint x="70" y="480" />
              <mxPoint x="150" y="420" />
              <mxPoint x="150" y="330" />
              <mxPoint x="70" y="280" />
              <mxPoint x="70" y="240" />
            </Array>
          </mxGeometry>
        </mxCell>
        <mxCell id="KXkjiEZ-s2yNR0u1X47W-99" style="edgeStyle=none;rounded=0;orthogonalLoop=1;jettySize=auto;html=1;exitX=1;exitY=0.5;exitDx=0;exitDy=0;exitPerimeter=0;entryX=0;entryY=0.5;entryDx=0;entryDy=0;entryPerimeter=0;fontSize=12;startSize=8;endSize=8;" edge="1" parent="1" source="KXkjiEZ-s2yNR0u1X47W-82" target="KXkjiEZ-s2yNR0u1X47W-97">
          <mxGeometry relative="1" as="geometry" />
        </mxCell>
        <mxCell id="KXkjiEZ-s2yNR0u1X47W-98" style="edgeStyle=none;rounded=0;orthogonalLoop=1;jettySize=auto;html=1;entryX=0;entryY=0.5;entryDx=0;entryDy=0;entryPerimeter=0;fontSize=12;startSize=8;endSize=8;" edge="1" parent="1" source="KXkjiEZ-s2yNR0u1X47W-53" target="KXkjiEZ-s2yNR0u1X47W-84">
          <mxGeometry relative="1" as="geometry" />
        </mxCell>
        <mxCell id="KXkjiEZ-s2yNR0u1X47W-103" value="" style="endArrow=none;html=1;rounded=0;fontSize=12;startSize=8;endSize=8;fillColor=#f8cecc;strokeColor=#b85450;strokeWidth=2;jumpStyle=line;" edge="1" parent="1">
          <mxGeometry width="50" height="50" relative="1" as="geometry">
            <mxPoint x="161" y="1052" as="sourcePoint" />
            <mxPoint x="163" y="170" as="targetPoint" />
            <Array as="points">
              <mxPoint x="68" y="1001" />
              <mxPoint x="68" y="959" />
              <mxPoint x="148" y="899" />
              <mxPoint x="148" y="880" />
              <mxPoint x="200" y="840" />
              <mxPoint x="200" y="810" />
              <mxPoint x="280" y="760" />
              <mxPoint x="280" y="720" />
              <mxPoint x="200" y="660" />
              <mxPoint x="200" y="640" />
              <mxPoint x="148" y="590" />
              <mxPoint x="148" y="571" />
              <mxPoint x="68" y="521" />
              <mxPoint x="68" y="479" />
              <mxPoint x="148" y="419" />
              <mxPoint x="148" y="331" />
              <mxPoint x="68" y="281" />
              <mxPoint x="68" y="239" />
            </Array>
          </mxGeometry>
        </mxCell>
        <mxCell id="KXkjiEZ-s2yNR0u1X47W-104" value="" style="endArrow=none;html=1;rounded=0;fontSize=12;startSize=8;endSize=8;fillColor=#d5e8d4;strokeColor=#82b366;strokeWidth=2;jumpStyle=line;" edge="1" parent="1">
          <mxGeometry width="50" height="50" relative="1" as="geometry">
            <mxPoint x="161" y="1054" as="sourcePoint" />
            <mxPoint x="164" y="167" as="targetPoint" />
            <Array as="points">
              <mxPoint x="66" y="1002" />
              <mxPoint x="66" y="958" />
              <mxPoint x="146" y="898" />
              <mxPoint x="146" y="880" />
              <mxPoint x="148" y="878" />
              <mxPoint x="148" y="811" />
              <mxPoint x="68" y="761" />
              <mxPoint x="68" y="719" />
              <mxPoint x="148" y="659" />
              <mxPoint x="148" y="640" />
              <mxPoint x="200" y="600" />
              <mxPoint x="200" y="569" />
              <mxPoint x="280" y="519" />
              <mxPoint x="280" y="480" />
              <mxPoint x="200" y="420" />
              <mxPoint x="200" y="394" />
              <mxPoint x="146" y="351" />
              <mxPoint x="146" y="332" />
              <mxPoint x="66" y="282" />
              <mxPoint x="66" y="238" />
            </Array>
          </mxGeometry>
        </mxCell>
        <mxCell id="KXkjiEZ-s2yNR0u1X47W-105" value="" style="endArrow=none;html=1;rounded=0;fontSize=12;startSize=8;endSize=8;fillColor=#e1d5e7;strokeColor=#9673a6;strokeWidth=2;sourcePerimeterSpacing=0;targetPerimeterSpacing=0;entryX=0.361;entryY=0.049;entryDx=0;entryDy=0;entryPerimeter=0;jumpStyle=none;" edge="1" parent="1" target="2ehP6Vw183c0psJm0ZBP-3">
          <mxGeometry width="50" height="50" relative="1" as="geometry">
            <mxPoint x="161" y="1056" as="sourcePoint" />
            <mxPoint x="167" y="166" as="targetPoint" />
            <Array as="points">
              <mxPoint x="64" y="1003" />
              <mxPoint x="64" y="957" />
              <mxPoint x="144" y="897" />
              <mxPoint x="144" y="880" />
              <mxPoint x="146" y="878" />
              <mxPoint x="146" y="812" />
              <mxPoint x="66" y="762" />
              <mxPoint x="66" y="718" />
              <mxPoint x="146" y="658" />
              <mxPoint x="146" y="640" />
              <mxPoint x="148" y="638" />
              <mxPoint x="148" y="592" />
              <mxPoint x="146" y="590" />
              <mxPoint x="146" y="572" />
              <mxPoint x="66" y="522" />
              <mxPoint x="66" y="478" />
              <mxPoint x="146" y="418" />
              <mxPoint x="146" y="400" />
              <mxPoint x="200" y="360" />
              <mxPoint x="200" y="330" />
              <mxPoint x="280" y="290" />
              <mxPoint x="280" y="240" />
            </Array>
          </mxGeometry>
        </mxCell>
        <object label="" markers="●" placeholders="1" id="KXkjiEZ-s2yNR0u1X47W-95">
          <mxCell style="ellipse;whiteSpace=wrap;html=1;aspect=fixed;fontSize=16;direction=south;points=[[0,0.5,0,0,0],[0.5,0,0,0,0],[0.5,1,0,0,0],[1,0.5,0,0,0]];" vertex="1" parent="1">
            <mxGeometry x="160" y="1040" width="35" height="35" as="geometry" />
          </mxCell>
        </object>
        <object label="" markers="●" placeholders="1" id="2ehP6Vw183c0psJm0ZBP-3">
          <mxCell style="ellipse;whiteSpace=wrap;html=1;aspect=fixed;fontSize=16;direction=south;points=[[0,0.5,0,0,0],[0.5,0,0,0,0],[0.5,1,0,0,0],[1,0.5,0,0,0]];" parent="1" vertex="1">
            <mxGeometry x="160" y="160" width="35" height="35" as="geometry" />
          </mxCell>
        </object>
      </root>
    </mxGraphModel>
  </diagram>
</mxfile>
